<svg width="200" height="200" viewBox="0 0 200 200" fill="none" xmlns="http://www.w3.org/2000/svg">
<path fill-rule="evenodd" clip-rule="evenodd" d="M11.3115 151.567V51.3792C11.3115 50.4028 12.0342 49.6018 12.9624 49.4645C49.8154 40.4786 80.2477 44.796 109.144 48.9C135.003 52.5691 159.631 56.0628 186.359 49.5102C187.387 49.2585 188.429 49.8993 188.68 50.9291L188.733 51.3791L188.741 151.567C188.741 152.536 188.018 153.344 187.09 153.482C159.707 160.156 134.785 156.624 108.62 152.909C80.0204 148.851 49.908 144.579 13.6944 153.443C12.6674 153.687 11.6251 153.054 11.374 152.025L11.3131 151.575L11.3115 151.567ZM5.55971 49.8934V153.987C5.55971 154.917 5.74992 155.779 6.1151 156.534C6.4879 157.297 7.04329 157.984 7.76607 158.556C8.47362 159.113 9.24204 159.487 10.0789 159.677C10.9386 159.86 11.8211 159.845 12.719 159.631L15.0623 159.059C26.2385 156.321 37.1488 154.818 48.0963 154.269C59.029 153.727 70.0237 154.147 81.3737 155.268C90.1153 156.13 98.7274 157.351 107.333 158.571C118.836 160.203 130.354 161.836 141.888 162.583C149.83 163.095 157.659 163.163 165.435 162.629C173.195 162.095 180.902 160.951 188.623 159.059L190.061 158.708C191.37 158.388 192.473 157.656 193.249 156.664C194.017 155.68 194.459 154.429 194.459 153.071V48.978C194.459 48.0779 194.291 47.254 193.934 46.4836C193.538 45.675 192.983 44.9885 192.252 44.4164C191.522 43.8443 190.731 43.4629 189.909 43.2875C189.08 43.1044 188.19 43.1273 187.292 43.3485L184.949 43.9206C177.957 45.6369 170.98 46.6514 163.988 47.1168C157.012 47.5821 149.99 47.5058 142.868 47.0482C131.392 46.3043 119.998 44.6845 108.627 43.0678L108.456 43.0435C99.8968 41.823 91.3375 40.6025 82.8538 39.7711C70.5971 38.5659 58.7125 38.1311 46.9065 38.7413C35.114 39.3516 23.3755 40.9916 11.3844 43.9284L9.93883 44.2869C8.63025 44.5997 7.52714 45.3396 6.751 46.3312C5.98258 47.3152 5.54132 48.5661 5.54132 49.924L5.55971 49.8934ZM15.1627 52.8976V149.124C51.0353 140.84 80.8199 145.059 109.145 149.079C134.525 152.679 158.726 156.112 184.883 150.04V53.813C158.369 59.7781 134.077 56.3379 108.621 52.7222C80.4109 48.7175 50.7237 44.5068 15.1724 52.8976L15.1627 52.8976ZM49.9161 85.0584H32.6016V85.0683C31.9156 85.0386 31.2489 85.3055 30.7465 85.7996C30.2537 86.2938 29.9735 86.9658 29.9735 87.6676C29.9735 88.3791 30.2537 89.0512 30.7465 89.5453C31.2489 90.0395 31.9156 90.2965 32.6016 90.2767H49.9161C51.2978 90.2372 52.3896 89.0808 52.3896 87.6676C52.3896 86.2642 51.2978 85.1077 49.9161 85.0683V85.0584ZM49.9161 112.385H32.6016C31.9156 112.366 31.2489 112.633 30.7465 113.127C30.2537 113.611 29.9735 114.293 29.9735 114.995C29.9735 115.706 30.2537 116.378 30.7465 116.872C31.2489 117.357 31.9156 117.624 32.6016 117.604H49.9161C51.2978 117.564 52.3896 116.408 52.3896 114.995C52.3896 113.591 51.2978 112.435 49.9161 112.385ZM24.3195 98.5391L49.9161 98.5292V98.5391C51.3268 98.5391 52.4669 99.7053 52.4669 101.148C52.4669 102.591 51.3268 103.757 49.9161 103.757H24.3195C22.9185 103.757 21.7687 102.591 21.7687 101.148C21.7687 99.7053 22.9185 98.5391 24.3195 98.5391ZM168.317 90.2768H151.003C150.307 90.2965 149.64 90.0395 149.148 89.5454C148.655 89.0512 148.375 88.3792 148.375 87.6676C148.375 86.9659 148.655 86.2939 149.148 85.7997C149.64 85.3055 150.307 85.0387 151.003 85.0683H168.317C169.003 85.0387 169.67 85.3055 170.172 85.7997C170.665 86.2939 170.945 86.9659 170.945 87.6676C170.945 88.3792 170.665 89.0512 170.172 89.5454C169.67 90.0396 169.003 90.2965 168.317 90.2768ZM168.317 117.604H151.003C150.307 117.624 149.64 117.357 149.148 116.873C148.655 116.378 148.375 115.706 148.375 114.995C148.375 114.293 148.655 113.611 149.148 113.127C149.64 112.633 150.307 112.366 151.003 112.386H168.317C169.003 112.366 169.67 112.633 170.172 113.127C170.665 113.611 170.945 114.293 170.945 114.995C170.945 115.706 170.665 116.378 170.172 116.873C169.67 117.357 169.003 117.624 168.317 117.604ZM151.003 103.748L176.589 103.757C178 103.757 179.14 102.591 179.14 101.148C179.14 99.7054 178 98.5392 176.589 98.5392H151.003C149.592 98.5392 148.452 99.7054 148.452 101.148C148.452 102.591 149.592 103.757 151.003 103.757V103.748Z" fill="#7F56D9"/>
<mask id="mask0_352_7228" style="mask-type:alpha" maskUnits="userSpaceOnUse" x="67" y="62" width="67" height="79">
<ellipse cx="100.175" cy="101.331" rx="32.9604" ry="39.0557" fill="#D9D9D9"/>
</mask>
<g mask="url(#mask0_352_7228)">
<ellipse cx="100.175" cy="101.331" rx="32.9604" ry="39.0557" fill="white"/>
<mask id="mask1_352_7228" style="mask-type:luminance" maskUnits="userSpaceOnUse" x="69" y="67" width="65" height="79">
<path d="M133.579 109.134C133.579 124.513 127.266 137.959 117.848 145.27C109.051 140.88 94.0226 140.88 85.2228 145.27C75.8071 137.959 69.4919 124.513 69.4919 109.134C69.4919 85.9501 83.838 67.1582 101.536 67.1582C119.233 67.1582 133.579 85.9501 133.579 109.134Z" fill="white"/>
</mask>
<g mask="url(#mask1_352_7228)">
<path d="M81.2521 88.3823C80.23 87.003 80.2185 86.1726 80.3942 85.6716C80.6064 85.0655 81.1311 84.8413 81.681 83.6083C81.7905 83.3613 81.9182 83.073 82.0232 82.6613C82.2696 81.7005 82.0369 81.4535 82.281 80.9823C82.621 80.328 83.1891 80.5751 83.6545 79.9071C84.1427 79.2049 83.6704 78.7085 84.1267 78.0565C84.51 77.5121 84.9275 77.7386 86.0158 77.1118C86.7391 76.6932 86.6227 76.5536 87.8593 75.6043C88.9248 74.79 89.0069 74.8975 89.5773 74.3576C90.4876 73.4929 90.2822 73.2139 90.9918 72.7221C91.7584 72.1913 92.6367 72.0747 93.2664 71.9923C94.0148 71.8917 93.9692 72.0198 94.6399 71.9054C95.6643 71.7316 95.7054 71.4456 96.7412 71.2604C97.6195 71.1025 97.7222 71.2832 98.288 71.0453C98.6508 70.8898 98.904 70.6885 99.3603 70.6565C99.6729 70.6359 99.9353 70.7022 100.111 70.764C101.598 70.096 102.737 70.1875 103.25 70.2699C104.199 70.4231 105.354 70.9149 105.968 71.2741C106.054 71.3244 106.287 71.4662 106.625 71.6195C107.172 71.8665 107.606 71.9695 107.8 72.0198C108.651 72.2417 109.461 72.6168 109.83 72.8227C110.305 73.0904 111.037 73.6371 111.66 74.8312C112.18 75.0805 112.931 75.4945 113.72 76.151C114.012 76.3912 114.669 76.9677 115.951 78.7313C116.161 79.0196 117.097 80.3166 118.24 82.2884C119.212 83.9629 119.695 84.8001 120.042 85.9027C120.526 87.4422 120.615 87.7944 120.615 87.7944C120.756 88.3594 120.854 88.8627 121.158 89.5444C121.409 90.1071 121.6 90.3473 121.673 90.4342C122.068 90.9032 122.294 90.8666 122.618 91.2371C122.956 91.626 122.867 91.8502 123.188 92.7286C123.451 93.4423 123.752 93.9501 123.962 94.3047C124.582 95.3547 124.813 95.3135 125.02 95.9402C125.146 96.3245 125.132 96.7981 125.105 97.7474C125.077 98.7722 125.057 99.2937 124.849 99.6689C124.398 100.479 123.567 100.733 123.476 100.76C122.657 100.996 121.981 100.696 121.815 100.616C121.719 100.874 121.569 101.245 121.359 101.677C120.816 102.796 120.464 103.519 119.727 103.942C119.476 104.088 119.041 104.278 118.384 104.287C118.11 105.582 117.742 106.618 117.439 107.355C116.814 108.876 116.499 109.636 115.78 110.338C115.089 111.013 114.658 111.056 114.035 111.916C113.745 112.317 113.579 112.664 113.12 113.149C112.73 113.563 112.349 113.84 112.089 114.009C112.121 114.137 112.153 114.336 112.105 114.563C112.025 114.924 111.817 115.004 111.74 115.359C111.712 115.48 111.735 115.67 111.783 116.047C111.863 116.693 111.915 116.745 111.911 116.951C111.904 117.198 111.815 117.553 111.418 117.983C111.521 118.095 111.68 118.255 111.89 118.436C112.239 118.735 112.52 118.907 112.833 119.101C114.247 119.977 114.555 120.204 114.865 120.579C114.957 120.691 115.064 120.821 115.171 121.016C115.447 121.51 115.454 121.908 115.552 122.501C115.6 122.805 115.687 123.251 115.851 123.791C116.253 123.994 116.889 124.301 117.697 124.623C118.612 124.989 119.059 125.101 120.015 125.454C121.573 126.03 121.322 126.078 122.36 126.43C124.069 127.007 124.738 126.872 126.022 127.634C126.262 127.778 126.403 127.881 126.85 128.208C127.724 128.848 128.935 129.738 130.428 130.848C126.994 137.214 123.56 143.582 120.129 149.948C107.77 149.921 95.4111 149.891 83.0544 149.864C78.934 141.631 74.8159 133.4 70.6956 125.168C72.8037 123.747 74.4532 122.716 75.5871 122.027C76.178 121.668 77.118 121.105 78.3774 120.263C79.3538 119.609 80.1387 119.046 80.652 118.671C80.4581 118.657 80.0338 118.6 79.6642 118.285C79.1599 117.852 78.966 117.118 79.1485 116.391C78.7926 116.317 78.172 116.121 77.8184 115.574C77.3438 114.833 77.6656 113.922 77.9485 113.122C78.1584 112.525 78.3705 111.923 78.934 111.53C79.5797 111.077 80.3167 111.154 80.8665 111.184C81.8635 111.241 83.3032 111.2 85.1991 110.754C85.3953 110.061 85.6485 109.304 85.9725 108.503C86.2394 107.844 86.5201 107.241 86.8007 106.696C86.5406 106.447 86.1619 106.014 85.9154 105.376C85.8151 105.122 85.7033 104.83 85.7147 104.459C85.7398 103.658 86.3216 103.109 86.5155 102.94C85.6143 102.947 85.1603 102.682 84.9139 102.423C84.6903 102.19 84.7063 102.039 84.4553 101.849C84.0538 101.545 83.7617 101.744 82.9974 101.59C82.6711 101.526 81.9046 101.373 81.4232 100.787C81.2407 100.566 81.2772 100.497 81.081 100.3C80.6908 99.9114 80.3394 99.9731 79.9082 99.7558C79.3379 99.4676 79.5478 99.1588 78.7333 98.3215C78.1287 97.6971 77.8846 97.7359 77.5903 97.2029C77.3689 96.8026 77.4442 96.67 77.1887 96.2559C76.8693 95.7389 76.632 95.7573 76.3035 95.3387C75.8312 94.737 75.5551 93.7214 75.9316 93.2456C76.1597 92.9551 76.4952 93.0328 76.7598 92.6142C76.8762 92.4289 76.8351 92.3763 76.9606 92.0103C77.1317 91.5116 77.3621 91.1662 77.5606 90.8643C77.7089 90.6424 77.9006 90.3542 78.1903 90.0614C78.3751 89.8761 78.6739 89.613 79.8489 89.0274C80.198 88.8558 80.6726 88.6294 81.2521 88.3823Z" fill="#696763"/>
<path d="M125.102 97.7474C125.075 98.7722 125.054 99.2937 124.846 99.6689C124.395 100.479 123.564 100.733 123.473 100.76C122.654 100.996 121.979 100.696 121.812 100.616C121.716 100.874 121.566 101.245 121.356 101.677C120.813 102.796 120.461 103.519 119.724 103.942C119.473 104.088 119.038 104.278 118.381 104.287C118.497 102.67 118.6 101.382 118.666 100.579C119.042 96.0112 119.154 95.7252 118.86 94.9017C118.44 93.7282 117.739 92.9894 117.959 91.7381C118.059 91.1685 118.257 91.0198 118.344 90.3198C118.47 89.3111 118.184 88.6202 117.959 87.8013C117.468 86.0239 117.874 85.8523 117.507 84.2534C117.048 82.2472 116.031 80.8587 115.577 80.2525C114.787 79.1957 113.847 78.4934 111.972 77.0889C110.623 76.0801 109.845 75.6546 109.398 75.9268C109.006 76.167 109.211 76.7366 108.755 77.0889C108.267 77.4641 107.553 77.1873 106.437 76.8967C106.437 76.8967 105.032 76.5285 103.412 76.3157C101.404 76.0504 100.008 76.302 99.6153 76.3798C98.4403 76.6108 97.7011 76.7572 97.1695 77.4114C96.5147 78.2144 96.5626 79.3009 96.59 79.93C96.6425 81.1698 97.0691 81.2682 97.0394 82.3159C97.0166 83.1348 96.7383 83.7181 96.2021 84.8344C95.5222 86.2527 95.2667 86.2069 94.8514 87.2203C94.4682 88.1581 94.3975 88.9062 94.272 90.2535C94.2104 90.9054 94.2035 91.658 94.2058 92.9871C94.2058 93.1815 94.2081 93.3897 94.2081 93.6093C94.2149 96.0409 94.2172 97.2579 94.3358 97.6765C94.4567 98.0997 94.6895 98.747 94.5937 99.6117C94.5366 100.131 94.4157 100.241 94.3997 100.71C94.3746 101.492 94.6849 101.837 94.9153 102.581C95.2074 103.514 95.3967 105.163 94.637 105.699C94.1305 106.056 93.4004 105.779 93.3069 105.742C92.6407 105.479 92.3441 104.859 91.8901 103.85C91.6596 103.336 91.379 102.604 91.1828 101.677C91.0186 101.664 90.706 101.618 90.3752 101.419C90.0215 101.206 89.8299 100.929 89.7455 100.787C89.531 101.293 89.3006 101.805 89.061 102.327C88.7165 103.07 88.3446 103.83 87.943 104.603C87.5643 105.33 87.1834 106.028 86.7978 106.696C86.5377 106.447 86.1589 106.014 85.9125 105.376C85.8121 105.122 85.7004 104.83 85.7118 104.459C85.7369 103.658 86.3187 103.109 86.5126 102.94C85.6114 102.947 85.1574 102.682 84.911 102.423C84.6874 102.19 84.7034 102.039 84.4524 101.849C84.0509 101.545 83.7588 101.744 82.9945 101.59C82.6682 101.526 81.9017 101.373 81.4203 100.787C81.2377 100.566 81.2743 100.497 81.078 100.3C80.6879 99.9114 80.3365 99.9731 79.9053 99.7558C79.3349 99.4676 79.5449 99.1588 78.7304 98.3215C78.1258 97.697 77.8816 97.7359 77.5873 97.2029C77.366 96.8026 77.4413 96.6699 77.1858 96.2559C76.8664 95.7389 76.6291 95.7573 76.3006 95.3386C75.8283 94.737 75.5522 93.7214 75.9287 93.2456C76.1568 92.9551 76.4922 93.0328 76.7569 92.6142C76.8732 92.4289 76.8322 92.3763 76.9576 92.0103C77.1287 91.5116 77.3592 91.1662 77.5577 90.8643C77.706 90.6424 77.8976 90.3542 78.1874 90.0614C78.3722 89.8761 78.671 89.613 79.846 89.0274C80.1951 88.8558 80.6697 88.6294 81.2492 88.3823C80.227 87.003 80.2156 86.1726 80.3913 85.6716C80.6035 85.0655 81.1282 84.8413 81.6781 83.6083C81.7876 83.3613 81.9153 83.073 82.0203 82.6613C82.2667 81.7005 82.034 81.4535 82.2781 80.9823C82.6181 80.328 83.1862 80.5751 83.6516 79.9071C84.1398 79.2048 83.6675 78.7085 84.1238 78.0565C84.5071 77.5121 84.9246 77.7386 86.0129 77.1118C86.7361 76.6932 86.6198 76.5514 87.8564 75.6043C88.9218 74.79 89.004 74.8975 89.5744 74.3576C90.4847 73.4929 90.2793 73.2139 90.9889 72.722C91.7555 72.1913 92.6338 72.0747 93.2635 71.9923C94.0119 71.8917 93.9662 72.0198 94.637 71.9054C95.6614 71.7316 95.7025 71.4456 96.7383 71.2604C97.6166 71.1025 97.7193 71.2832 98.2851 71.0453C98.6479 70.8898 98.9011 70.6885 99.3574 70.6565C99.67 70.6359 99.9324 70.7022 100.108 70.764C101.596 70.096 102.734 70.1875 103.247 70.2699C104.196 70.4231 105.351 70.9149 105.965 71.2741C106.051 71.3244 106.284 71.4662 106.622 71.6172C107.169 71.8665 107.603 71.9695 107.797 72.0198C108.645 72.2417 109.458 72.6168 109.827 72.8227C110.302 73.0904 111.034 73.6371 111.657 74.8312C112.177 75.0805 112.928 75.4945 113.717 76.151C114.009 76.3912 114.666 76.9677 115.948 78.7313C116.158 79.0196 117.094 80.3166 118.237 82.2884C119.209 83.9629 119.692 84.8001 120.039 85.9027C120.523 87.4422 120.612 87.7944 120.612 87.7944C120.753 88.3594 120.851 88.8627 121.155 89.5444C121.406 90.1071 121.598 90.3473 121.671 90.4342C122.065 90.9032 122.291 90.8666 122.615 91.2371C122.953 91.626 122.864 91.8525 123.185 92.7286C123.448 93.4423 123.749 93.9501 123.959 94.3047C124.579 95.3547 124.81 95.3135 125.017 95.9402C125.143 96.3222 125.129 96.7981 125.102 97.7474Z" fill="#7F56D9"/>
<path d="M118.67 100.581C118.604 101.384 118.501 102.671 118.385 104.289C118.111 105.583 117.743 106.62 117.44 107.356C116.815 108.877 116.502 109.637 115.781 110.339C115.136 110.971 114.718 111.048 114.157 111.757C113.758 111.979 113.183 112.272 112.462 112.549C111.563 112.897 110.509 113.304 109.316 113.324C108.259 113.34 107.429 112.99 105.768 112.29C105.437 112.151 104.091 111.584 102.364 110.513C100.801 109.543 100.021 109.058 99.4458 108.26C98.5127 106.965 98.3621 105.604 98.3301 105.206C98.2229 103.863 98.6564 103.454 98.7705 102.008C98.9051 100.274 98.4305 98.9199 98.159 98.1513C97.178 95.356 95.1794 93.6907 94.2098 92.9884C94.2075 91.6594 94.2143 90.9068 94.2759 90.2548C94.4014 88.9075 94.4721 88.1595 94.8554 87.2216C95.2706 86.2082 95.5262 86.254 96.2061 84.8357C96.7422 83.7194 97.0206 83.1361 97.0434 82.3172C97.073 81.2695 96.6464 81.1711 96.5939 79.9313C96.5666 79.3023 96.5187 78.2157 97.1734 77.4128C97.705 76.7585 98.4442 76.6122 99.6192 76.3811C100.012 76.3034 101.408 76.0517 103.416 76.3171C105.035 76.5298 106.441 76.8981 106.441 76.8981C107.557 77.1886 108.271 77.4654 108.759 77.0903C109.215 76.738 109.01 76.1684 109.402 75.9282C109.849 75.656 110.627 76.0815 111.976 77.0903C113.851 78.4948 114.791 79.197 115.581 80.2539C116.035 80.8601 117.052 82.2486 117.511 84.2547C117.878 85.8537 117.472 86.0252 117.962 87.8026C118.188 88.6216 118.474 89.3124 118.348 90.3212C118.261 91.0212 118.063 91.1698 117.962 91.7394C117.743 92.9907 118.444 93.7296 118.864 94.9031C119.158 95.7266 119.046 96.0125 118.67 100.581Z" fill="#F4EBFF"/>
<path d="M114.16 111.755C114.122 111.806 114.08 111.858 114.039 111.915C113.75 112.316 113.583 112.663 113.125 113.148C112.734 113.562 112.353 113.839 112.093 114.011C111.502 114.846 110.031 116.66 107.647 117.165C106.018 117.511 104.685 117.037 102.025 116.088C99.9374 115.347 97.8613 114.608 95.6733 112.748C93.8778 111.22 92.8784 109.678 92.1849 108.589C91.3225 107.235 90.3323 105.648 89.9239 103.34C89.7414 102.303 89.7277 101.416 89.7528 100.787C89.8372 100.929 90.0289 101.205 90.3825 101.418C90.7133 101.617 91.0259 101.663 91.1902 101.677C91.3864 102.603 91.667 103.335 91.8974 103.85C92.3514 104.858 92.648 105.478 93.3142 105.741C93.4077 105.778 94.1378 106.055 94.6443 105.698C95.4041 105.163 95.2147 103.513 94.9227 102.58C94.6922 101.837 94.382 101.491 94.407 100.709C94.423 100.24 94.544 100.13 94.601 99.6109C94.6968 98.7463 94.4641 98.0989 94.3432 97.6757C94.2245 97.2571 94.2223 96.0401 94.2154 93.6085C94.2154 93.3889 94.2132 93.1808 94.2132 92.9863C95.1828 93.6886 97.1813 95.3539 98.1624 98.1492C98.4339 98.9178 98.9085 100.272 98.7739 102.006C98.6598 103.452 98.2263 103.861 98.3335 105.204C98.3654 105.602 98.5161 106.963 99.4492 108.258C100.024 109.056 100.804 109.541 102.367 110.511C104.094 111.581 105.44 112.149 105.771 112.288C107.432 112.988 108.263 113.338 109.319 113.322C110.512 113.302 111.566 112.895 112.465 112.547C113.186 112.27 113.761 111.977 114.16 111.755Z" fill="#E9D7FE"/>
<path d="M121.819 146.805C121.299 147.773 120.777 148.74 120.256 149.706C119.515 146.272 119.424 144.396 119.504 143.301C119.524 143.008 119.618 142.001 119.376 140.72C119.275 140.201 119.141 139.48 118.73 138.655C118.173 137.531 117.774 137.552 116.994 136.202C116.492 135.335 116.241 134.903 116.221 134.331C116.186 133.38 116.716 132.927 116.414 132.266C116.298 132.012 116.043 131.81 115.534 131.405C114.925 130.921 114.562 130.808 114.375 130.374C114.263 130.111 114.27 129.855 114.29 129.685C113.989 129.276 113.54 128.734 112.917 128.18C112.483 127.794 111.338 126.837 109.57 126.199C108.078 125.662 108.023 126.025 105.536 125.426C105.267 125.36 105.03 125.298 104.818 125.241C106.802 125.055 107.74 125.405 109.098 124.607C109.901 124.136 110.66 123.376 110.514 123.058C110.378 122.761 109.497 122.971 109.442 122.759C109.376 122.512 110.533 122.249 111.429 121.153C111.858 120.627 111.963 120.236 112.002 120.005C112.08 119.529 111.97 119.133 111.915 118.943C111.785 118.488 111.562 118.165 111.416 117.982C111.518 118.095 111.678 118.255 111.888 118.435C112.237 118.735 112.518 118.907 112.83 119.101C114.245 119.977 114.553 120.204 114.863 120.579C114.954 120.691 115.061 120.821 115.169 121.016C115.445 121.51 115.452 121.908 115.55 122.5C115.598 122.804 115.684 123.251 115.849 123.79C115.926 124.191 116.001 124.6 116.07 125.017C116.186 125.7 116.287 126.368 116.371 127.018C116.9 127.819 117.254 128.219 117.487 128.436C117.553 128.498 117.749 128.679 117.916 128.974C118.048 129.209 118.1 129.413 118.123 129.505C118.411 130.632 118.716 131.758 118.988 132.89C119.2 133.768 119.196 133.455 119.739 135.299C119.846 135.663 120.104 136.546 120.512 138.14C120.948 139.844 121.336 141.505 121.457 142.074C121.762 143.536 121.849 145.192 121.819 146.805Z" fill="#2C1C5F"/>
<path d="M120.262 149.707C120.218 149.789 120.175 149.869 120.132 149.95C115.338 149.938 110.545 149.927 105.751 149.918C104.045 145.276 102.751 141.705 101.779 138.988C101.845 138.201 101.973 137.345 102.195 136.442C102.455 135.38 102.795 134.459 103.139 133.688C102.58 132.699 101.907 131.181 101.747 129.248C101.693 128.584 101.563 127.01 101.946 125.917C102.633 125.661 103.429 125.373 104.821 125.242C105.035 125.299 105.272 125.361 105.541 125.427C108.028 126.027 108.083 125.663 109.575 126.201C111.343 126.839 112.489 127.795 112.922 128.182C113.545 128.735 113.994 129.277 114.296 129.687C114.275 129.856 114.268 130.112 114.38 130.375C114.567 130.81 114.93 130.922 115.539 131.407C116.048 131.812 116.303 132.013 116.42 132.267C116.721 132.928 116.192 133.381 116.226 134.333C116.246 134.905 116.497 135.337 116.999 136.204C117.779 137.554 118.179 137.533 118.735 138.656C119.146 139.482 119.281 140.202 119.381 140.722C119.623 142.003 119.529 143.009 119.509 143.302C119.429 144.398 119.52 146.274 120.262 149.707Z" fill="#D6BBFB"/>
<path d="M105.748 149.917C98.1822 149.899 90.6168 149.881 83.0536 149.865C78.9332 141.632 74.8151 133.399 70.6947 125.169C72.8051 123.748 74.4523 122.717 75.5862 122.028C76.1771 121.669 77.1171 121.106 78.3765 120.264C79.3553 119.61 80.1378 119.048 80.6512 118.672C81.3949 117.901 82.2345 116.902 83.0239 115.646C84.1807 113.811 84.8263 112.075 85.1982 110.755C85.3944 110.062 85.6454 109.305 85.9716 108.504C86.2386 107.846 86.5192 107.242 86.7998 106.697C87.1854 106.029 87.5664 105.332 87.9451 104.604C88.3467 103.831 88.7186 103.072 89.0631 102.328C88.8281 103.463 88.5976 105.174 88.803 107.228C89.1771 110.973 90.7742 113.615 91.3765 114.585C91.7529 115.193 93.585 118.144 94.8102 118.974C94.9174 119.045 95.3509 119.327 95.6407 119.862C95.8939 120.335 95.9167 120.784 95.9259 121.038C95.9897 122.678 95.8825 125.016 95.8688 125.283C96.4711 126.249 96.9092 126.962 97.2126 127.463C97.6803 128.23 97.8605 128.536 98.2142 129.012C98.4469 129.323 98.5358 129.412 98.6727 129.643C99.1108 130.382 99.1701 131.091 99.1884 131.222C99.2477 131.684 99.9093 133.756 101.776 138.988C102.748 141.705 104.041 145.276 105.748 149.917Z" fill="#2C1C5F"/>
<path d="M85.1983 110.756C84.8264 112.076 84.1807 113.812 83.024 115.647C82.2346 116.902 81.395 117.902 80.6512 118.673C80.4573 118.659 80.033 118.602 79.6634 118.286C79.1614 117.854 78.9652 117.12 79.1478 116.392C78.7918 116.319 78.169 116.122 77.8176 115.576C77.3408 114.834 77.6648 113.924 77.9477 113.123C78.1576 112.526 78.3697 111.925 78.9332 111.531C79.5789 111.078 80.3159 111.156 80.8657 111.186C81.8627 111.243 83.3024 111.202 85.1983 110.756Z" fill="#53389E"/>
<path d="M121.827 146.806C121.857 145.193 121.77 143.537 121.464 142.075C121.343 141.505 120.955 139.845 120.52 138.141C120.111 136.546 119.853 135.663 119.746 135.299C119.203 133.456 119.208 133.769 118.996 132.891C118.724 131.758 118.418 130.633 118.131 129.505C118.108 129.414 118.056 129.21 117.923 128.975C117.757 128.679 117.561 128.499 117.494 128.437C117.262 128.22 116.908 127.819 116.379 127.019C116.294 126.369 116.194 125.701 116.078 125.017C116.009 124.601 115.934 124.191 115.856 123.791C116.258 123.995 116.894 124.301 117.702 124.624C118.617 124.99 119.064 125.102 120.018 125.454C121.578 126.03 121.327 126.079 122.365 126.431C124.074 127.007 124.743 126.872 126.027 127.634C126.267 127.778 126.408 127.881 126.855 128.208C127.729 128.849 128.941 129.739 130.433 130.848C127.565 136.166 124.697 141.487 121.827 146.806Z" fill="#42307D"/>
<path d="M103.136 133.688C102.792 134.458 102.452 135.38 102.192 136.442C101.971 137.345 101.843 138.201 101.777 138.988C99.9103 133.756 99.2487 131.684 99.1894 131.222C99.1711 131.091 99.1118 130.382 98.6737 129.643C98.5368 129.412 98.4479 129.323 98.2151 129.012C97.8615 128.536 97.6813 128.23 97.2136 127.463C96.9102 126.962 96.4721 126.249 95.8698 125.283C96.6501 125.736 97.8912 126.313 99.4495 126.386C100.574 126.438 101.193 126.198 101.943 125.917C101.56 127.01 101.69 128.584 101.745 129.247C101.904 131.18 102.577 132.699 103.136 133.688Z" fill="#B692F6"/>
<path d="M111.739 115.359C111.712 115.48 111.734 115.672 111.782 116.048C111.862 116.693 111.915 116.745 111.91 116.951C111.903 117.198 111.814 117.553 111.417 117.983C111.563 118.166 111.787 118.488 111.917 118.944C111.972 119.133 112.081 119.529 112.004 120.005C111.965 120.236 111.86 120.627 111.431 121.153C110.534 122.249 109.378 122.512 109.444 122.759C109.499 122.972 110.379 122.761 110.516 123.059C110.662 123.377 109.902 124.136 109.099 124.607C107.742 125.406 106.804 125.056 104.819 125.241C103.425 125.371 102.629 125.66 101.942 125.916C101.459 126.097 101.03 126.261 100.482 126.341C100.728 125.04 101.151 123.452 101.89 122.027C102.335 121.174 102.602 120.938 102.75 120.822C103.676 120.099 104.659 120.437 105.581 119.531C105.839 119.278 105.759 119.255 106.053 118.973C106.774 118.283 107.354 118.333 107.856 117.896C108.061 117.718 108.283 117.432 108.419 116.944C110.35 116.26 111.563 114.751 112.088 114.012C112.12 114.138 112.152 114.337 112.104 114.563C112.024 114.924 111.817 115.004 111.739 115.359Z" fill="#D6BBFB"/>
<path d="M108.424 116.944C108.288 117.431 108.066 117.717 107.861 117.895C107.359 118.332 106.78 118.282 106.059 118.973C105.764 119.254 105.844 119.277 105.586 119.531C104.665 120.437 103.681 120.098 102.755 120.821C102.607 120.938 102.34 121.173 101.895 122.027C101.156 123.452 100.734 125.039 100.487 126.341C100.188 126.384 99.8529 126.403 99.4536 126.384C97.8953 126.311 96.6542 125.735 95.8739 125.282C95.8876 125.014 95.9949 122.676 95.931 121.036C95.9219 120.782 95.899 120.334 95.6458 119.86C95.356 119.325 94.9225 119.044 94.8153 118.973C93.5901 118.142 91.7581 115.192 91.3816 114.583C90.7793 113.613 89.1822 110.971 88.8081 107.226C88.6027 105.172 88.8332 103.461 89.0682 102.327C89.3078 101.805 89.5382 101.293 89.7527 100.787C89.7276 101.416 89.7412 102.304 89.9238 103.34C90.3322 105.648 91.3223 107.236 92.1847 108.59C92.8783 109.679 93.8776 111.22 95.6731 112.748C97.8611 114.608 99.9373 115.347 102.025 116.088C104.685 117.038 106.017 117.511 107.646 117.166C107.916 117.106 108.176 117.033 108.424 116.944Z" fill="#9E77ED"/>
</g>
</g>
</svg>
