<svg width="48" height="32" viewBox="0 0 48 32" fill="none" xmlns="http://www.w3.org/2000/svg">
<path d="M44.1433 25.5104C44.1433 25.5104 41.4431 20.376 41.2181 19.7828C41.0023 19.2511 40.7564 18.732 40.4816 18.2282C39.9498 17.1236 40.0521 15.3848 40.4408 14.7711C41.1772 13.5642 40.9726 10.2708 40.6454 9.10484C40.5022 8.57299 40.6658 7.10018 40.3385 6.20013C40.1544 5.70919 38.0679 2.96811 37.6178 2.51808C37.1678 2.06805 37.0042 0.840704 36.2064 0.656602C35.8996 0.595234 35.7973 0.881621 35.4496 1.45439C35.3678 1.59758 35.2859 1.7203 35.2246 1.61802L34.9995 1.24983C34.9732 1.19337 34.9313 1.14561 34.8788 1.11214C34.8262 1.07867 34.7652 1.06088 34.7029 1.06088C34.6406 1.06088 34.5796 1.07867 34.5271 1.11214C34.4745 1.14561 34.4327 1.19337 34.4063 1.24983C34.3238 1.45297 34.2061 1.63994 34.0585 1.80213C32.6266 1.88395 31.5629 2.43625 30.9697 3.1522C30.7651 3.39767 30.5402 3.35676 29.9879 3.78633C29.4355 4.2159 28.556 4.42047 28.1878 4.56366C27.8196 4.70685 27.84 4.74777 27.8195 4.95233C27.8388 5.12253 27.9022 5.28471 28.0036 5.4228C28.024 5.48416 28.065 5.52508 28.1059 5.52508H28.2082C28.2278 5.51139 28.2438 5.49298 28.2545 5.47154C28.2652 5.45009 28.2704 5.42631 28.2696 5.40235C28.2671 5.32819 28.2848 5.25476 28.3208 5.1899C28.3569 5.12504 28.4099 5.07121 28.4741 5.03416L28.7195 4.95233C29.0059 4.8705 29.1287 5.27962 28.9855 5.36144C28.8423 5.44327 28.8219 5.77055 28.6787 5.91374C28.6304 5.96411 28.5643 5.9935 28.4946 5.99557C28.1673 6.05694 28.3719 6.957 28.5764 7.30475C28.781 7.6525 28.556 7.91842 29.006 8.55255C29.456 9.18668 29.8856 9.00258 30.4992 8.63438C31.1129 8.26617 31.747 8.59347 32.013 8.92076C32.2125 9.17775 32.3156 9.49655 32.3044 9.8217C32.2932 10.1469 32.1684 10.4578 31.9516 10.7004C31.6857 10.9663 31.7266 11.2936 31.7675 11.6823C31.8085 12.071 32.013 12.4392 31.4402 12.8074C30.8675 13.1756 30.6015 14.0961 30.4992 14.5052C30.4788 14.5461 30.4174 14.5461 30.4174 14.5052C30.3765 14.0756 30.356 13.1551 30.9697 12.6437C31.5834 12.1323 31.4198 11.9687 31.338 11.805C31.2686 11.6881 31.2465 11.549 31.2765 11.4164C31.3174 11.3141 31.3584 11.1505 31.2152 11.0891C31.072 11.0277 30.9697 11.2323 30.9084 11.355C30.847 11.4777 30.5811 11.9073 30.2334 11.9687C29.3742 12.1323 27.8604 12.7665 27.4309 12.7665C27.0013 12.7665 25.8148 13.0937 25.3648 12.8892C25.1127 12.7754 24.8428 12.7062 24.5671 12.6846C24.4684 12.6841 24.3709 12.6632 24.2807 12.6233C22.3783 11.9278 18.4099 11.5187 15.6688 12.3164C13.2754 13.0324 11.864 12.4801 10.6776 10.9868C7.81376 7.42748 7.36375 5.99557 4.5613 5.99557C1.75885 5.99557 0.101853 8.63437 1.5133 11.6209C2.2088 13.462 4.60219 12.7256 3.51803 10.7822C2.43387 8.83893 4.86806 7.40702 6.4227 9.49351C7.97734 11.58 8.38648 12.8278 9.61383 14.1165C10.1866 14.7302 11.4754 15.6303 11.8231 15.8758C12.1709 16.1212 11.9254 15.978 11.8844 16.1008C11.8435 16.2235 11.1071 17.9213 10.207 18.4736C9.81042 18.723 9.38448 18.9223 8.93883 19.0669C8.83495 19.1092 8.7412 19.173 8.66365 19.2541C8.58611 19.3352 8.52647 19.4317 8.48876 19.5373C8.34529 19.8683 8.22905 20.2103 8.14107 20.5601C7.90333 21.1969 7.6985 21.8456 7.52739 22.5034C7.44557 22.8921 7.15911 24.3649 7.03638 24.6922C6.91364 25.0195 6.56589 25.8173 7.65005 26.5537C8.32672 26.9905 8.86019 27.6165 9.18424 28.3538C9.48883 29.0338 9.97786 29.6148 10.5958 30.0312C10.9231 30.2562 11.0867 30.7267 11.2094 30.8903C11.3322 31.054 11.4344 31.054 13.1323 31.0335C14.4824 30.9926 14.6051 30.9926 14.7483 30.829C14.8915 30.6653 14.9119 30.2971 14.646 29.8062C14.3801 29.3152 14.155 29.0288 13.5822 29.0288C13.0095 29.0288 12.5594 29.0493 12.3549 28.722C12.1503 28.3947 10.4934 26.5537 10.5139 25.5513C10.5343 24.549 11.373 23.8535 11.5571 23.5467C11.5761 23.5119 11.6021 23.4814 11.6334 23.4571C11.6648 23.4328 11.7008 23.4153 11.7392 23.4057C11.7777 23.3961 11.8177 23.3946 11.8568 23.4012C11.8959 23.4079 11.9331 23.4226 11.9662 23.4444C12.5353 23.6801 13.1624 23.7378 13.7649 23.61C14.3674 23.4822 14.9171 23.1748 15.3415 22.7285C15.9142 22.0125 16.5689 22.0329 16.8348 22.0943C17.1007 22.1557 17.1416 22.3193 17.2848 23.0353C17.428 23.7512 17.7144 23.7308 17.6326 24.549C17.5833 25.0219 17.6425 25.4998 17.8055 25.9464C17.9686 26.3929 18.2312 26.7965 18.5735 27.1265C18.5735 27.1265 20.4759 28.6402 21.0282 29.2538C21.5805 29.8675 21.5805 30.5221 21.7646 30.8699C21.7843 30.9129 21.816 30.9493 21.856 30.9747C21.8959 31.0001 21.9423 31.0134 21.9896 31.0131C23.1411 31.0746 24.2951 31.0746 25.4466 31.0131C26.0398 30.9517 25.3035 29.438 24.6898 29.172C24.0761 28.9061 23.6465 29.0902 23.2374 28.9061C22.8283 28.722 22.0919 27.2901 22.0919 27.2901C21.4373 25.5923 21.9078 24.7945 22.0101 23.8331C22.0616 23.1942 22.0063 22.5513 21.8465 21.9307C21.8465 21.8898 21.8669 21.8284 21.9283 21.8284C22.2622 21.7576 22.6103 21.8083 22.9101 21.9716C23.7693 22.483 25.2421 22.8512 26.6126 22.7898C27.0883 22.7535 27.561 22.8917 27.9423 23.1785C28.4332 23.5467 28.4537 24.0376 28.5764 24.5899C28.5764 24.5899 29.1696 27.0651 29.3742 27.6379C29.5512 28.0769 29.7632 28.5011 30.0083 28.9061C30.0901 29.0698 30.2947 30.3176 30.7038 30.7471C31.1129 31.1767 31.4198 31.0744 31.9721 31.0335C32.3748 31.0146 32.7784 31.0283 33.179 31.0744C33.3631 31.0744 33.7313 31.0949 33.8949 31.0744C34.0586 31.054 34.8564 31.0335 34.8154 30.4403C34.7745 29.8471 34.2017 28.9675 33.5471 29.0288C32.8926 29.0902 32.7698 28.722 32.7289 28.1697C32.688 27.6174 32.4017 24.8763 32.7699 24.2626C32.9939 23.8597 33.192 23.4429 33.3631 23.0148C33.58 22.5342 33.9099 22.1132 34.3245 21.7875C34.3861 21.7471 34.4589 21.7274 34.5324 21.7311C34.6059 21.7348 34.6764 21.7617 34.7336 21.8079C35.8587 22.708 36.0428 23.1989 37.3929 23.7921C38.1293 24.1194 40.7272 25.5104 41.2795 25.8991C41.4602 26.0154 41.6115 26.1719 41.7215 26.3565C41.8315 26.541 41.8972 26.7486 41.9136 26.9628C41.9954 27.5151 41.7704 28.9266 41.7295 29.0698C41.5658 29.9084 41.7909 30.8903 42.6705 31.0131C43.5501 31.1358 43.8569 30.829 44.0206 30.338C44.1842 29.8471 44.0615 29.5812 44.041 29.0902C44.0206 28.5993 44.3479 28.1288 44.4502 27.556C44.5524 26.9833 44.1433 25.5104 44.1433 25.5104ZM15.4233 13.8302C15.4028 13.8711 15.362 13.8302 15.3824 13.7892C15.812 13.1142 16.2211 12.9915 16.8961 13.0119C17.0775 13.017 17.2537 12.9509 17.387 12.8278C17.8166 12.3164 18.1848 12.0096 19.2281 12.0709C19.2485 12.0709 19.2485 12.1119 19.2281 12.1323C19.2076 12.1528 18.2053 12.1732 17.7553 13.1551C17.6326 13.462 17.1416 13.5029 16.8552 13.4211C16.0778 13.2165 15.6483 13.6665 15.4233 13.8302ZM16.8756 14.7098C16.8552 14.7507 16.8143 14.7098 16.8348 14.6689C16.9371 14.3211 17.3053 13.7893 18.1439 13.8302C18.9826 13.8711 19.2076 13.6256 19.5144 13.1142C19.8213 12.6028 20.3327 12.0914 21.601 12.3164C21.6118 12.3164 21.6223 12.3207 21.6299 12.3284C21.6376 12.3361 21.6419 12.3465 21.6419 12.3573C21.6419 12.3682 21.6376 12.3786 21.6299 12.3863C21.6223 12.3939 21.6118 12.3983 21.601 12.3983C21.0077 12.3574 20.394 12.7255 20.0463 13.5642C19.6985 14.4029 19.2281 14.2597 18.328 14.137C17.428 14.0143 17.1007 14.5052 16.8756 14.7098ZM19.2895 21.7466L18.2257 22.3807C17.6939 22.7489 17.7553 21.767 17.7553 21.767C17.7614 21.729 17.778 21.6935 17.8034 21.6646C17.8287 21.6356 17.8616 21.6144 17.8984 21.6034C18.2257 21.542 19.1054 21.4806 19.3918 21.317C19.6782 21.1534 19.7804 21.4397 19.2895 21.7466ZM19.8213 15.3234C18.9621 15.2825 18.594 15.7121 18.4303 15.9985C18.2667 16.2849 18.369 16.0189 18.369 15.978C18.5122 15.4462 18.8599 14.8939 20.0054 14.8734C21.151 14.853 21.3145 14.0552 21.56 13.6256C21.8055 13.196 22.8488 12.3778 23.8511 12.7665C23.9738 12.8074 23.9125 12.9096 23.8511 12.8892C23.6556 12.8132 23.4417 12.7979 23.2373 12.8454C23.033 12.8928 22.8476 13.0008 22.7056 13.1551C21.9896 13.7892 22.3782 15.4666 19.8213 15.3234ZM22.9306 16.1212C22.051 16.2439 21.6623 17.0008 21.5192 17.4099C21.4987 17.4509 21.4169 17.4508 21.4169 17.3895C21.4169 16.9599 21.5396 16.0803 22.5828 15.7939C23.626 15.5075 23.7284 15.0575 23.8921 14.6279C24.0557 14.1984 24.2397 13.4824 25.1398 13.2369C25.3448 13.1694 25.565 13.1623 25.7739 13.2165C25.7944 13.2165 25.7944 13.2574 25.7535 13.2574C25.3648 13.2779 24.5671 13.462 24.5057 14.587C24.4648 15.1393 24.117 15.9576 22.9306 16.1212ZM28.6173 12.8074C28.516 12.8424 28.4197 12.8905 28.3309 12.9506C27.5536 13.4415 28.2491 13.912 27.7582 14.362C27.2672 14.812 27.1036 14.3825 26.6126 14.9757C26.1217 15.5689 26.5308 15.7735 26.0808 16.203C25.6307 16.6326 25.2012 16.5508 24.9762 17.0826C24.8865 17.3006 24.818 17.5266 24.7716 17.7577C24.7512 17.819 24.6898 17.819 24.6693 17.7577C24.5974 17.4346 24.6333 17.0969 24.7716 16.7963C25.0171 16.2849 25.5694 16.1417 25.6103 15.5689C25.6234 15.189 25.7667 14.8251 26.0162 14.5383C26.2658 14.2515 26.6063 14.0593 26.9808 13.9938C27.0916 13.9845 27.1956 13.9363 27.2743 13.8576C27.3529 13.779 27.4011 13.6751 27.4104 13.5642C27.5663 13.2455 27.8366 12.9972 28.1673 12.8687L28.5764 12.7256C28.6378 12.7051 28.6582 12.7665 28.6173 12.8074ZM35.8382 6.24103C35.961 6.03647 35.7973 5.87284 35.8996 5.66828C36.0018 5.46372 36.2064 5.42281 36.3087 5.25916C36.4037 5.09923 36.4399 4.9111 36.411 4.72732C36.411 4.68641 36.4519 4.66593 36.4724 4.70684C36.7383 5.11596 36.5337 5.81148 36.0018 6.36378C35.9827 6.38252 35.957 6.393 35.9302 6.393C35.9035 6.393 35.8778 6.38252 35.8587 6.36378C35.8178 6.34333 35.8178 6.28194 35.8382 6.24103ZM35.2654 4.93188C35.0404 5.25917 35.2041 5.46373 35.0405 5.75011C34.8768 6.03649 34.8972 6.03649 34.2836 6.15923C34.0905 6.18928 33.9077 6.26657 33.7517 6.38423C33.6859 6.42705 33.6114 6.45475 33.5336 6.46536C33.4557 6.47597 33.3766 6.46922 33.3017 6.44559C33.2813 6.42513 33.2812 6.38423 33.3221 6.38423C33.363 6.38423 33.629 6.34331 33.6904 6.22058C33.7747 6.07135 33.9143 5.96118 34.079 5.91374C34.6109 5.70918 34.2835 5.44325 34.8563 4.9114C35.4291 4.37955 35.4905 3.62268 34.795 3.27493C34.7873 3.26642 34.7821 3.25594 34.7801 3.24465C34.7781 3.23335 34.7793 3.22171 34.7836 3.21106C34.7878 3.20041 34.795 3.19118 34.8043 3.18439C34.8135 3.1776 34.8245 3.17353 34.8359 3.17266C35.4701 3.3363 35.6745 4.33866 35.2654 4.93188ZM32.3198 5.4228C32.3154 5.41896 32.312 5.41425 32.3096 5.40896C32.3072 5.40367 32.306 5.39794 32.306 5.39213C32.306 5.38633 32.3072 5.38059 32.3096 5.3753C32.312 5.37001 32.3154 5.36528 32.3198 5.36144C32.4651 5.34479 32.6049 5.29585 32.7289 5.21824C33.1994 4.89094 33.2198 4.48183 33.4449 4.37955C33.6699 4.27727 33.7108 3.94998 33.404 3.88861C33.3157 3.86385 33.2215 3.87111 33.138 3.90909C32.9808 3.94958 32.8386 4.03484 32.7289 4.15454C32.6251 4.23865 32.4943 4.28226 32.3607 4.27727C32.1153 4.29773 31.8698 4.01135 31.6038 4.175C31.3379 4.33864 31.338 4.21591 31.4402 4.15454C31.5425 4.09318 31.9721 3.70452 32.2585 3.6227C32.5448 3.54088 32.7085 3.70451 32.9539 3.78633C33.1994 3.86815 33.4654 3.72496 33.6904 3.68405C33.9154 3.64314 34.0381 3.82725 33.9972 3.94999C33.8959 4.06462 33.8317 4.20726 33.8131 4.3591C33.8336 4.64548 33.5063 5.21825 32.8517 5.36144C32.678 5.40583 32.499 5.42646 32.3198 5.4228ZM32.6881 8.10253C32.6471 8.10253 32.6471 8.06161 32.6881 8.04115C32.8461 8.02285 32.9953 7.95887 33.1175 7.85704C33.2198 7.73431 33.3222 7.48883 33.5881 7.46838C33.7102 7.48574 33.8343 7.45655 33.9358 7.38658C34.0585 7.30475 34.2427 7.20245 34.079 7.46838C33.9384 7.70228 33.7302 7.88809 33.4819 8.0013C33.2336 8.1145 32.9568 8.1498 32.6881 8.10253ZM35.1428 9.37078C35.0814 9.59579 34.8155 9.59579 34.6314 9.57534H34.304C34.1813 9.59579 33.7927 9.63672 33.2813 9.12532C33.2608 9.12532 33.2813 9.08439 33.3017 9.10484C33.4936 9.20241 33.7015 9.26477 33.9154 9.28895C34.1494 9.27211 34.375 9.19456 34.5699 9.06394C35.1222 8.71619 35.3268 9.04349 35.6745 8.63438C35.7636 8.5282 35.8392 8.41138 35.8996 8.28661C35.8996 8.26616 35.9405 8.26618 35.9405 8.30709C35.9405 8.348 35.8587 8.61392 35.8178 8.7162C35.5518 9.26851 35.2859 9.00258 35.1428 9.37078ZM35.9814 21.4193C35.9476 21.4495 35.904 21.4661 35.8587 21.4661C35.8134 21.4661 35.7697 21.4495 35.736 21.4193L35.3677 21.0102C35.3389 20.9798 35.3229 20.9395 35.3229 20.8976C35.3229 20.8558 35.3389 20.8155 35.3677 20.7852C35.6132 20.5192 36.3087 19.8237 36.5542 19.3532C36.5644 19.3413 36.5777 19.3325 36.5927 19.328C36.6078 19.3234 36.6238 19.3233 36.6389 19.3276C36.654 19.3319 36.6676 19.3405 36.6779 19.3523C36.6883 19.3641 36.695 19.3786 36.6973 19.3941C36.7033 20.1322 36.4499 20.849 35.9814 21.4193ZM36.3496 7.83659C36.2883 7.87751 36.2269 7.79568 36.2678 7.73431C36.3087 7.67295 36.5541 7.30474 36.5132 7.12064C36.4723 6.93654 36.861 6.75243 36.9019 7.01836C36.9428 7.28429 36.7792 7.52976 36.3496 7.83659Z" fill="#FA3812"/>
</svg>
