<svg width="48" height="49" viewBox="0 0 48 49" fill="none" xmlns="http://www.w3.org/2000/svg">
    <g clip-path="url(#clip0_2416_12386)">
        <path d="M24 48.5C37.3001 48.5 48 37.8001 48 24.5C48 11.1999 37.3001 0.5 24 0.5C10.6999 0.5 0 11.1999 0 24.5C0 37.8001 10.6999 48.5 24 48.5Z" fill="#051212"/>
        <path d="M3.6 24.5C3.6 30.0228 5.80959 35.0151 9.36855 38.6803L9.71718 39.0307C13.3742 42.6212 18.2562 44.7632 23.4926 44.8936L24 44.9C29.2579 44.9 34.1897 42.8701 37.9248 39.3734L38.2822 39.0307C42.045 35.3365 44.4 30.2009 44.4 24.5C44.4 18.7991 42.045 13.6636 38.2822 9.96934L37.9248 9.62656C34.1897 6.13015 29.2579 4.1 24 4.1L24 3.5L24.5232 3.50645C29.7409 3.63644 34.6153 5.70706 38.3344 9.18828L38.7029 9.54102C42.4537 13.2235 44.8471 18.301 44.993 23.9516L45 24.5C45 30.1866 42.7238 35.3265 39.0615 39.098L38.7029 39.4584C34.8189 43.2718 29.5891 45.5 24 45.5L23.4773 45.4936C18.0851 45.3593 13.0597 43.1527 9.29707 39.4584C5.42547 35.6572 2.99999 30.3701 2.99999 24.5L3.00703 23.9516C3.15291 18.301 5.54643 13.2235 9.29707 9.54102L9.66504 9.18828C13.5081 5.59077 18.5852 3.50005 24 3.5L24 4.1C18.5721 4.10006 13.4921 6.26301 9.71719 9.96933L9.36855 10.3197C5.80962 13.985 3.6 18.9773 3.6 24.5Z" fill="url(#paint0_linear_2416_12386)"/>
        <path d="M0.600001 24.5C0.6 30.8352 3.13485 36.5616 7.21699 40.7656L7.6166 41.1676C11.8111 45.2859 17.4109 47.7434 23.4176 47.893L24 47.9C30.0315 47.9 35.6885 45.5713 39.9727 41.5607L40.3828 41.1676C44.6987 36.9303 47.4 31.0395 47.4 24.5C47.4 17.9606 44.6987 12.0697 40.3828 7.83242L39.9727 7.43926C35.6885 3.42889 30.0315 1.1 24 1.1L24 0.500002L24.5977 0.50762C30.5609 0.656104 36.1317 3.02231 40.3822 7.00098L40.8029 7.4041C45.0895 11.6126 47.825 17.4153 47.9918 23.873L48 24.5C48 30.999 45.3985 36.8731 41.2131 41.1834L40.8029 41.5959C36.3641 45.954 30.3875 48.5 24 48.5L23.4023 48.4924C17.24 48.3389 11.4965 45.8177 7.19648 41.5959C2.7718 37.2517 1.51166e-06 31.2086 2.09815e-06 24.5L0.00820375 23.873C0.174964 17.4154 2.91008 11.6126 7.19649 7.4041L7.61719 7.00098C12.0093 2.88951 17.8117 0.500062 24 0.500002L24 1.1C17.7736 1.10006 11.9464 3.58131 7.6166 7.83242L7.21699 8.23438C3.13489 12.4384 0.600001 18.1649 0.600001 24.5Z" fill="#8800FF"/>
        <path d="M45 24.5C45 18.819 42.7293 13.6826 39.0615 9.90545L38.7024 9.54451C34.9322 5.8428 29.9072 3.64045 24.5221 3.50642L24 3.49998C18.5932 3.49998 13.5176 5.58626 9.66739 9.1906L9.29825 9.54451C5.41996 13.3522 3.00001 18.6359 3.00001 24.5C3.00001 30.3638 5.41959 35.6477 9.29766 39.4554H9.29825C13.1902 43.2764 18.4188 45.5 24 45.5V47.9L23.417 47.8929C17.6029 47.7481 12.1715 45.4405 8.02735 41.5613L7.61719 41.1681C3.30298 36.9325 0.600006 31.0409 0.600006 24.5C0.600006 18.1634 3.13674 12.4363 7.21758 8.23377L7.61719 7.83181C11.9451 3.58259 17.7721 1.09998 24 1.09998L24.5824 1.10701C30.5909 1.25663 36.1908 3.71537 40.3834 7.83181C44.6975 12.0674 47.4 17.9591 47.4 24.5C47.4 31.0409 44.6975 36.9325 40.3834 41.1681L39.9733 41.5613C35.6909 45.57 30.0337 47.8999 24 47.9V45.5C29.5819 45.4999 34.8106 43.2771 38.7024 39.456L39.0615 39.0945C42.7293 35.3173 45 30.1809 45 24.5Z" fill="url(#paint1_linear_2416_12386)"/>
        <g clip-path="url(#clip1_2416_12386)">
            <path d="M13.0277 29.6589C15.0719 29.6589 16.7291 27.2915 16.7291 24.3712C16.7291 21.4508 15.0719 19.0834 13.0277 19.0834C10.9834 19.0834 9.32623 21.4508 9.32623 24.3712C9.32623 27.2915 10.9834 29.6589 13.0277 29.6589Z" fill="url(#paint2_linear_2416_12386)"/>
            <path d="M15.9788 24.3708C15.9788 23.0424 15.6008 21.8717 15.0281 21.0536C14.4535 20.2327 13.7339 19.8247 13.0279 19.8246C12.3217 19.8246 11.6017 20.2326 11.0269 21.0536C10.4543 21.8717 10.0763 23.0424 10.0762 24.3708C10.0762 25.6994 10.4542 26.8706 11.0269 27.6888C11.6017 28.5098 12.3217 28.9178 13.0279 28.9178V29.6589L12.8375 29.6517C10.9446 29.5148 9.4272 27.347 9.33136 24.643L9.32623 24.3708C9.32637 21.4506 10.9837 19.0834 13.0279 19.0834L13.2183 19.0907C15.1739 19.2324 16.7287 21.542 16.7288 24.3708L16.7244 24.643C16.6254 27.4369 15.0082 29.6588 13.0279 29.6589V28.9178C13.7339 28.9177 14.4535 28.5096 15.0281 27.6888C15.6008 26.8706 15.9788 25.6994 15.9788 24.3708Z" fill="url(#paint3_linear_2416_12386)" fill-opacity="0.6"/>
            <path d="M26.0955 35.2489C30.347 35.2489 33.7935 30.4238 33.7935 24.4718C33.7935 18.5197 30.347 13.6946 26.0955 13.6946C21.8441 13.6946 18.3976 18.5197 18.3976 24.4718C18.3976 30.4238 21.8441 35.2489 26.0955 35.2489Z" fill="url(#paint4_linear_2416_12386)"/>
            <path d="M33.0438 24.4721C33.0438 21.631 32.2199 19.09 30.9264 17.2789C29.6314 15.4659 27.912 14.4358 26.0953 14.4358C24.2787 14.4359 22.56 15.466 21.265 17.2789C19.9715 19.09 19.1476 21.6309 19.1476 24.4721C19.1476 27.3131 19.9715 29.8536 21.265 31.6646C22.56 33.4775 24.2787 34.5076 26.0953 34.5077V35.2488L25.8969 35.2452C21.8693 35.1024 18.6108 30.6289 18.4078 25.0265L18.3976 24.4721C18.3976 18.5202 21.844 13.6948 26.0953 13.6946L26.2946 13.6983C30.454 13.846 33.7938 18.6132 33.7938 24.4721L33.7836 25.0265C33.5773 30.7208 30.2139 35.2488 26.0953 35.2488V34.5077C27.912 34.5077 29.6314 33.4776 30.9264 31.6646C32.2198 29.8536 33.0438 27.313 33.0438 24.4721Z" fill="url(#paint5_linear_2416_12386)" fill-opacity="0.6"/>
            <path d="M18.3911 32.1711C21.3671 32.1711 23.7796 28.7246 23.7796 24.4732C23.7796 20.2217 21.3671 16.7752 18.3911 16.7752C15.415 16.7752 13.0025 20.2217 13.0025 24.4732C13.0025 28.7246 15.415 32.1711 18.3911 32.1711Z" fill="url(#paint6_linear_2416_12386)"/>
            <path d="M23.0294 24.4729C23.0293 22.4789 22.4622 20.7061 21.5843 19.4518C20.7042 18.1946 19.563 17.5164 18.3909 17.5164C17.2189 17.5164 16.0776 18.1946 15.1976 19.4518C14.3197 20.7061 13.7526 22.4789 13.7525 24.4729C13.7525 26.467 14.3196 28.2403 15.1976 29.4946C16.0776 30.7518 17.2189 31.43 18.3909 31.4301V32.1713L18.1141 32.1611C15.3587 31.9618 13.1496 28.8057 13.0098 24.8695L13.0025 24.4729C13.0026 20.2216 15.415 16.7753 18.3909 16.7752L18.6685 16.7853C21.5155 16.9916 23.7793 20.3545 23.7794 24.4729L23.7728 24.8695C23.6284 28.9368 21.2739 32.1713 18.3909 32.1713V31.4301C19.563 31.4301 20.7042 30.7519 21.5843 29.4946C22.4623 28.2403 23.0294 26.467 23.0294 24.4729Z" fill="url(#paint7_linear_2416_12386)" fill-opacity="0.6"/>
            <path d="M38.028 24.4734C38.028 21.1496 37.2419 18.166 35.9982 16.0137L35.9388 15.9118C34.6725 13.7723 33.02 12.5838 31.3141 12.5471L31.2328 12.5462C29.5255 12.5462 27.8663 13.7014 26.5878 15.8107L26.5272 15.9118C25.2491 18.0713 24.4377 21.0968 24.4377 24.4734C24.4377 27.8499 25.2491 30.8754 26.5272 33.0349L26.5878 33.1362C27.8663 35.2453 29.5255 36.4005 31.2328 36.4005C32.9674 36.4005 34.6524 35.2084 35.9388 33.0349L35.9982 32.9331C37.2419 30.7808 38.028 27.7972 38.028 24.4734ZM38.6742 24.4734C38.6742 27.8911 37.8671 30.9903 36.5575 33.2567L36.4948 33.3641C35.1481 35.6397 33.2876 37.0467 31.2328 37.0467C29.2103 37.0467 27.376 35.6831 26.0346 33.4701L25.9712 33.3641C24.6245 31.0888 23.7915 27.9454 23.7915 24.4734C23.7915 21.0013 24.6245 17.8581 25.9712 15.5828L26.0346 15.4767C27.376 13.2636 29.2103 11.9 31.2328 11.9L31.3289 11.9011C33.3455 11.9443 35.1691 13.3427 36.4948 15.5828L36.5575 15.69C37.8672 17.9564 38.6742 21.0556 38.6742 24.4734Z" fill="url(#paint8_linear_2416_12386)"/>
        </g>
    </g>
    <defs>
        <linearGradient id="paint0_linear_2416_12386" x1="2.04687" y1="25.0407" x2="41.4027" y2="25.0407" gradientUnits="userSpaceOnUse">
            <stop stop-color="#8800FF" stop-opacity="0.6"/>
            <stop offset="1" stop-color="#8800FF" stop-opacity="0.2"/>
        </linearGradient>
        <linearGradient id="paint1_linear_2416_12386" x1="48.4621" y1="23.8975" x2="4.60847" y2="23.8975" gradientUnits="userSpaceOnUse">
            <stop stop-color="#8800FF"/>
            <stop offset="1" stop-color="#8800FF" stop-opacity="0.2"/>
        </linearGradient>
        <linearGradient id="paint2_linear_2416_12386" x1="16.7291" y1="24.3712" x2="9.32623" y2="24.3712" gradientUnits="userSpaceOnUse">
            <stop stop-color="#8800FF"/>
            <stop offset="1" stop-color="#8800FF" stop-opacity="0"/>
        </linearGradient>
        <linearGradient id="paint3_linear_2416_12386" x1="16.7291" y1="24.3712" x2="9.32623" y2="24.3712" gradientUnits="userSpaceOnUse">
            <stop stop-color="#8800FF"/>
            <stop offset="0.6" stop-color="#8800FF" stop-opacity="0"/>
        </linearGradient>
        <linearGradient id="paint4_linear_2416_12386" x1="33.7935" y1="24.4718" x2="18.3976" y2="24.4718" gradientUnits="userSpaceOnUse">
            <stop stop-color="#8800FF"/>
            <stop offset="1" stop-color="#8800FF" stop-opacity="0"/>
        </linearGradient>
        <linearGradient id="paint5_linear_2416_12386" x1="33.7935" y1="24.4718" x2="18.3976" y2="24.4718" gradientUnits="userSpaceOnUse">
            <stop stop-color="#8800FF"/>
            <stop offset="0.6" stop-color="#8800FF" stop-opacity="0"/>
        </linearGradient>
        <linearGradient id="paint6_linear_2416_12386" x1="23.7796" y1="24.4732" x2="13.0025" y2="24.4732" gradientUnits="userSpaceOnUse">
            <stop stop-color="#8800FF"/>
            <stop offset="1" stop-color="#8800FF" stop-opacity="0"/>
        </linearGradient>
        <linearGradient id="paint7_linear_2416_12386" x1="23.7796" y1="24.4732" x2="13.0025" y2="24.4732" gradientUnits="userSpaceOnUse">
            <stop stop-color="#8800FF"/>
            <stop offset="0.6" stop-color="#8800FF" stop-opacity="0"/>
        </linearGradient>
        <linearGradient id="paint8_linear_2416_12386" x1="38.6742" y1="24.158" x2="25.334" y2="24.158" gradientUnits="userSpaceOnUse">
            <stop stop-color="#8800FF"/>
            <stop offset="1" stop-color="#8800FF" stop-opacity="0"/>
        </linearGradient>
        <clipPath id="clip0_2416_12386">
            <rect y="0.5" width="48" height="48" rx="24" fill="white"/>
        </clipPath>
        <clipPath id="clip1_2416_12386">
            <rect width="31.5" height="25.2" fill="white" transform="translate(8.25 11.9)"/>
        </clipPath>
    </defs>
</svg>
