<svg width="250" height="250" viewBox="0 0 250 250" fill="none" xmlns="http://www.w3.org/2000/svg">
<circle cx="125" cy="125" r="125" fill="#F1F3ED"/>
<path d="M113.646 144.221C118.63 157.212 124.441 171.847 117.593 183.96C114.056 190.216 108.309 195.317 100.929 198.019C84.4899 204.038 66.1764 195.879 60.0246 179.794C53.8727 163.708 62.2121 145.789 78.651 139.77C78.9468 139.662 79.2433 139.558 79.5402 139.459L88.3265 161.895C87.9593 161.969 87.5932 162.071 87.2311 162.204C83.4547 163.587 81.539 167.703 82.9522 171.398C84.3654 175.093 88.5724 176.968 92.3488 175.585C96.1252 174.202 98.0409 170.086 96.6277 166.391C96.5904 166.293 96.5511 166.197 96.51 166.102L81.9088 128.801L81.8232 128.843L80.5803 125.497C69.5934 96.5717 84.6056 64.3875 114.158 53.5662C143.752 42.7299 176.721 57.4195 187.796 86.3763L188.369 87.8755C199.053 115.811 185.4 147.03 157.369 158.755C148.159 162.607 138.222 164.462 128.24 164.213L118.526 139.514L126.369 140.137C133.672 140.717 141.009 139.547 147.746 136.729C163.746 130.037 171.54 112.217 165.442 96.2709L164.868 94.7717C158.532 78.2048 139.67 69.8005 122.738 76.0003C105.807 82.2 97.2179 100.656 103.554 117.223L106.514 125.191L106.494 125.18L107.02 126.555L111.631 138.967L113.646 144.221Z" fill="#254839"/>
</svg>
