<?xml version="1.0" encoding="utf-8"?>
<!-- Generator: Adobe Illustrator 26.3.1, SVG Export Plug-In . SVG Version: 6.00 Build 0)  -->
<svg version="1.1" id="Layer_1" xmlns="http://www.w3.org/2000/svg" xmlns:xlink="http://www.w3.org/1999/xlink" x="0px" y="0px"
	 viewBox="0 0 1000 1000" style="enable-background:new 0 0 1000 1000;" xml:space="preserve">
<style type="text/css">
	.st0{fill:#FFFFFF;}
	.st1{fill:url(#SVGID_1_);}
</style>
<g>
	<circle class="st0" cx="500" cy="500" r="500"/>
	
		<linearGradient id="SVGID_1_" gradientUnits="userSpaceOnUse" x1="325.3668" y1="295.3638" x2="674.6332" y2="644.6302" gradientTransform="matrix(1 0 0 1 21.2153 8.7877)">
		<stop  offset="0" style="stop-color:#00ADAB;stop-opacity:0.5"/>
		<stop  offset="1" style="stop-color:#00ADAB"/>
	</linearGradient>
	<path class="st1" d="M694.3,630.2c-5.8-1.5-11.5-4.5-16.2-9.2l-0.1-0.1L381.8,324.7l-2.9-2.9c-3.5-3.5-6.1-7.5-7.7-11.6
		c-6.6-16.2-0.6-36,16.3-44.5c57.3-29.2,166.4-57,276.2,40.8c0.2,0.2,1.7,1.3,3.1,1.3c1.7,0,3.4-1,3.4-1s-0.2,0.1,0.2-0.1
		c2.8-1.4,14.4-7.9,32.5-26c8.6-8.5,12.8-18.6,12.8-30c-0.1-16.5-9.2-34.8-25-50.2c-8.2-7.9-8.3-21-0.3-29.1
		c7.9-8.2,21-8.3,29.1-0.3c23.6,23.1,37.3,51.9,37.5,79.4c0.1,22.5-8.5,43-24.8,59.4c-15.5,15.5-27.8,24.5-36,29.6
		c42,48.3,60,96.4,64.4,139.9V479c0.1,1.3,0.2,2.6,0.3,3.8c0.1,1.5,0.2,3,0.3,4.4c0.1,1.6,0.1,3.1,0.2,4.8c0.1,1.5,0.1,3,0.1,4.4
		c0,1.5,0,3,0,4.5c0,1.5,0,3,0,4.4c0,1.5-0.1,2.9-0.1,4.4c0,1.5-0.1,2.9-0.2,4.4c-0.1,1.4-0.2,2.8-0.3,4.3c-0.1,1.5-0.2,2.9-0.3,4.4
		c-0.1,1.4-0.2,2.7-0.5,4.1c-0.1,1.5-0.3,2.9-0.6,4.4c-0.1,1.3-0.3,2.7-0.6,4c-0.2,1.5-0.5,2.9-0.7,4.4c-0.2,1.3-0.5,2.4-0.7,3.7
		c-0.2,1.5-0.6,2.9-0.8,4.3c-0.1,0.6-0.2,1.3-0.3,1.9l0,0c-5.2,24.5-13.6,45.8-22.1,62.7C726.6,627.8,709.6,634.2,694.3,630.2z
		 M488.4,455.6L371.1,338.3l0,0l0,0l0,0c-11.8,14.4-33.1,39.6-65.6,74.2c-5.5,5.7-11.1,11.6-17.1,17.8c-3.3,3.5-6.4,7-9.3,10.5
		c-0.7,0.8-1.3,1.6-2,2.3c-0.8,1-1.7,2.2-2.6,3.3c-7.7,10-14,20.4-19.1,31.1c-15.1,31.9-19.3,66.2-17.6,99.6
		c1.5,28.5,7.5,56.4,14.9,81.3c5.9,20.3,10.2,34.4,10.9,43.9v4.4c-0.1,0.8-0.1,1.5-0.2,2.2c-0.6,2.8-1,5.2-1,7.6
		c-0.6,7,1.3,11.5,6.9,16.5c5,5.6,9.6,7.5,16.5,7c2.3-0.1,4.8-0.5,7.6-1c0.7-0.1,1.4-0.2,2.2-0.2h4.4c9.6,0.7,23.6,5.1,43.9,10.9
		c25,7.5,52.9,13.4,81.3,14.9c33.4,1.7,67.8-2.4,99.6-17.6c10.7-5.1,21.1-11.4,31.1-19.1c1-0.8,2.2-1.7,3.3-2.6
		c0.8-0.7,1.6-1.3,2.4-2c3.5-2.9,7.1-5.9,10.5-9.3c6.2-5.9,12-11.6,17.7-17c34.6-32.6,59.9-53.9,74.3-65.7l0,0l0,0l0,0L488.4,455.6z
		"/>
</g>
</svg>
