<svg width="300" height="300" viewBox="0 0 300 300" fill="none" xmlns="http://www.w3.org/2000/svg">
<path d="M300 150C300 67.1573 232.843 0 150 0C67.1573 0 0 67.1573 0 150C0 232.843 67.1573 300 150 300C232.843 300 300 232.843 300 150Z" fill="black"/>
<path d="M165.874 134.121V59.998H123.528C94.2898 59.998 70.5898 83.698 70.5898 112.937C70.5898 142.175 94.2898 165.875 123.528 165.875H134.121V134.11H165.886L165.874 134.121Z" fill="white"/>
<path d="M176.467 134.121H165.875V165.886H134.109V240.01H176.456C205.694 240.01 229.394 216.31 229.394 187.071C229.394 157.833 205.694 134.133 176.456 134.133L176.467 134.121Z" fill="white"/>
</svg>
